<svg xmlns="http://www.w3.org/2000/svg" viewBox="0 0 16 16">
  <path fillRule="evenodd" d="M2.915 15c-.206.583-.762 1-1.415 1-.828 0-1.5-.672-1.5-1.5 0-.653.417-1.21 1-1.415V2.915C.417 2.71 0 2.153 0 1.5 0 .672.672 0 1.5 0c.653 0 1.21.417 1.415 1h10.17c.206-.583.762-1 1.415-1 .828 0 1.5.672 1.5 1.5 0 .653-.417 1.21-1 1.415v10.17c.583.206 1 .762 1 1.415 0 .828-.672 1.5-1.5 1.5-.653 0-1.21-.417-1.415-1H2.915zM14 2v12H2V2h12zm-2.293 12L14 11.707v-1.414L10.293 14h1.414zM2 5.707L5.707 2H4.293L2 4.293v1.414zm0 3l.023-.023L8.707 2H7.293L2 7.293v1.414zm0 3L11.707 2h-1.414L2 10.293v1.414zM2.707 14L14 2.707V2h-.707L2 13.293V14h.707zm3 0L14 5.707V4.293L4.293 14h1.414zm3 0L14 8.707V7.293L7.293 14h1.414z" />
</svg>
