<svg xmlns="http://www.w3.org/2000/svg" viewBox="12 12 16 16">
  <path fillRule="evenodd" d="M24.495 25c-.828 0-1.5.672-1.5 1.5s.672 1.5 1.5 1.5 1.5-.672 1.5-1.5-.672-1.5-1.5-1.5zm-7.997 0c-.828 0-1.5.672-1.5 1.5s.672 1.5 1.5 1.5 1.5-.672 1.5-1.5-.672-1.5-1.5-1.5zm-.5-11h9.863l-.947 4h-8.915v-4zm9.31 6c.695 0 1.3-.478 1.46-1.154l1.18-4.982c.237-.947-.48-1.864-1.454-1.864H13c-.553 0-1 .448-1 1s.447 1 1 1h1v8.5c0 .828.67 1.5 1.498 1.5h10.497c.552 0 1-.448 1-1s-.448-1-1-1h-9.997v-2h9.31z" />
</svg>
