<svg xmlns="http://www.w3.org/2000/svg" viewBox="14 10 17 15">
  <path fillRule="evenodd" d="M30 21c.552 0 1 .448 1 1s-.448 1-1 1h-1.14c.082-.32.14-.652.14-1 0-.347-.058-.68-.14-1H30zm-5 2c.552 0 1-.448 1-1s-.448-1-1-1-1 .448-1 1 .448 1 1 1zm0-4c1.657 0 3 1.343 3 3s-1.343 3-3 3-3-1.343-3-3 1.343-3 3-3zm-9 2h5.142c-.084.32-.142.653-.142 1 0 .348.058.68.142 1H16c-.552 0-1-.448-1-1s.448-1 1-1zm0-6c-.552 0-1-.448-1-1s.448-1 1-1h1.14c-.082.32-.14.653-.14 1 0 .348.058.68.14 1H16zm5-2c-.552 0-1 .448-1 1s.448 1 1 1 1-.448 1-1-.448-1-1-1zm0 4c-1.657 0-3-1.343-3-3s1.343-3 3-3 3 1.343 3 3-1.343 3-3 3zm9-2h-5.14c.082-.32.14-.652.14-1 0-.347-.058-.68-.14-1H30c.552 0 1 .448 1 1s-.448 1-1 1z" />
</svg>
